# xmcd
#
# Track frame offsets:
#	183
#	28358
#	53495
#	82415
#	101365
#	124820
#	144708
#	175958
#	206420
#	230570
#	261820
#	290703
#
# Disc length: 4203 seconds
#
# Revision: 0
# Processed by: cddbd v1.5.2PL0 Copyright (c) Steve Scherf et al.
# Submitted via: dBpowerAMP V4.0
#
DISCID=b610690c
DTITLE=Moody Blues Band - VCR
DYEAR=1987
DGENRE=Blues
TTITLE0=MoodyBlues_More_than_words
TTITLE1=MoodyBlues_The_voice
TTITLE2=MoodyBlues_Rock´n´Roll_over_you
TTITLE3=MoodyBlues_Thursday_afternoon
TTITLE4=MoodyBlues_Your_wildest_dreams
TTITLE5=MoodyBlues_The_story_in_your_eyes
TTITLE6=MoodyBlues_The_other_side_of_life
TTITLE7=MoodyBlues_Isn´t_life_strange
TTITLE8=MoodyBlues_Veteran_cosmic_rocker
TTITLE9=MoodyBlues_I´m_just_a_singer(in_a_rock´n´roll_band)
TTITLE10=MoodyBlues_Question
TTITLE11=MoodyBlues_Nights_in_white_satin
EXTD=
EXTT0=
EXTT1=
EXTT2=
EXTT3=
EXTT4=
EXTT5=
EXTT6=
EXTT7=
EXTT8=
EXTT9=
EXTT10=
EXTT11=
PLAYORDER=
